<svg width="64" height="64" viewBox="0 0 64 64" fill="none" xmlns="http://www.w3.org/2000/svg">
<rect width="64" height="64" rx="32" fill="#EEF4FF"/>
<path d="M29.0908 29.0907C29.0908 30.6974 30.3932 31.9998 31.9999 31.9998C33.6066 31.9998 34.909 30.6974 34.909 29.0907C34.909 27.4841 33.6066 26.1816 31.9999 26.1816C30.3932 26.1816 29.0908 27.4841 29.0908 29.0907Z" stroke="#111010" stroke-width="2.18182"/>
<path d="M41.0841 36.3637C42.6811 34.3715 43.6363 31.8428 43.6363 29.091C43.6363 22.6644 38.4265 17.4546 31.9999 17.4546C25.5733 17.4546 20.3635 22.6644 20.3635 29.091C20.3635 31.8428 21.3188 34.3715 22.9157 36.3637" stroke="#111010" stroke-width="2.18182" stroke-linecap="round"/>
<path d="M18.9092 41.4547C18.9092 39.4118 18.9092 38.3904 19.3504 37.6567C19.5414 37.339 19.7869 37.0663 20.0728 36.8541C20.7332 36.3638 21.6524 36.3638 23.491 36.3638H40.5092C42.3477 36.3638 43.267 36.3638 43.9274 36.8541C44.2133 37.0663 44.4587 37.339 44.6497 37.6567C45.091 38.3904 45.091 39.4118 45.091 41.4547C45.091 43.4976 45.091 44.519 44.6497 45.2526C44.4587 45.5703 44.2133 45.843 43.9274 46.0553C43.267 46.5456 42.3477 46.5456 40.5092 46.5456H23.491C21.6524 46.5456 20.7332 46.5456 20.0728 46.0553C19.7869 45.843 19.5414 45.5703 19.3504 45.2526C18.9092 44.519 18.9092 43.4976 18.9092 41.4547Z" stroke="#111010" stroke-width="2.18182"/>
<path d="M30.5454 40.7271H33.4545" stroke="#111010" stroke-width="2.18182" stroke-linecap="round" stroke-linejoin="round"/>
<path d="M37.6592 24.1606L40.5849 21.2349" stroke="#111010" stroke-width="2.18182" stroke-linecap="round" stroke-linejoin="round"/>
</svg>
