<svg width="64" height="64" viewBox="0 0 64 64" fill="none" xmlns="http://www.w3.org/2000/svg">
<rect width="64" height="64" rx="32" fill="#EEF4FF"/>
<path d="M36.3635 21.8182C36.3635 24.2282 34.4099 26.1819 31.9999 26.1819C29.5898 26.1819 27.6362 24.2282 27.6362 21.8182C27.6362 19.4083 29.5898 17.4546 31.9999 17.4546C34.4099 17.4546 36.3635 19.4083 36.3635 21.8182Z" stroke="#111010" stroke-width="2.18182"/>
<path d="M31.9999 26.1816V27.6362M31.9999 27.6362C31.9999 28.9916 31.9999 29.6693 32.2583 30.204C32.6027 30.9168 33.2635 31.4832 34.0951 31.7784C34.7188 31.9998 35.5095 31.9998 37.0908 31.9998C38.6722 31.9998 39.4629 31.9998 40.0866 32.2212C40.9182 32.5165 41.579 33.0829 41.9234 33.7956C42.1817 34.3303 42.1818 35.008 42.1818 36.3635V37.818M31.9999 27.6362C31.9999 28.9916 31.9999 29.6693 31.7416 30.204C31.3972 30.9168 30.7364 31.4832 29.9048 31.7784C29.2811 31.9998 28.4904 31.9998 26.909 31.9998C25.3276 31.9998 24.537 31.9998 23.9133 32.2212C23.0816 32.5165 22.4209 33.0829 22.0765 33.7956C21.8181 34.3303 21.8181 35.008 21.8181 36.3635V37.818" stroke="#111010" stroke-width="2.18182" stroke-linecap="round" stroke-linejoin="round"/>
<path d="M26.1819 42.182C26.1819 44.592 24.2282 46.5456 21.8182 46.5456C19.4083 46.5456 17.4546 44.592 17.4546 42.182C17.4546 39.772 19.4083 37.8184 21.8182 37.8184C24.2282 37.8184 26.1819 39.772 26.1819 42.182Z" stroke="#111010" stroke-width="2.18182"/>
<path d="M46.5454 42.182C46.5454 44.592 44.5918 46.5456 42.1818 46.5456C39.7717 46.5456 37.8181 44.592 37.8181 42.182C37.8181 39.772 39.7717 37.8184 42.1818 37.8184C44.5918 37.8184 46.5454 39.772 46.5454 42.182Z" stroke="#111010" stroke-width="2.18182"/>
<path d="M30.5454 26.1816H33.4545C37.5685 26.1816 39.6255 26.1816 40.9036 27.4597C42.1818 28.7378 42.1818 30.7949 42.1818 34.9089C42.1818 39.0229 42.1818 41.08 40.9036 42.3581C39.6255 43.6362 37.5685 43.6362 33.4545 43.6362H31.9999C31.9999 43.6362 31.2727 46.5453 26.1818 46.5453C26.1818 46.5453 27.6363 45.0781 27.6363 43.611C25.3767 43.5429 24.029 43.2909 23.0962 42.3581C21.8181 41.08 21.8181 39.0229 21.8181 34.9089C21.8181 30.7949 21.8181 28.7378 23.0962 27.4597C24.3743 26.1816 26.4313 26.1816 30.5454 26.1816Z" stroke="#111010" stroke-width="2.18182" stroke-linejoin="round"/>
<path d="M42.1819 31.2729H42.9092C44.2686 31.2729 44.9483 31.2729 45.4546 31.5653C45.7862 31.7567 46.0617 32.0322 46.2532 32.3639C46.5455 32.8702 46.5455 33.5499 46.5455 34.9093C46.5455 36.2687 46.5455 36.9484 46.2532 37.4548C46.0617 37.7864 45.7862 38.0619 45.4546 38.2533C44.9483 38.5457 44.2686 38.5457 42.9092 38.5457H42.1819" stroke="#111010" stroke-width="2.18182" stroke-linejoin="round"/>
<path d="M21.8182 31.2729H21.091C19.7315 31.2729 19.0518 31.2729 18.5455 31.5653C18.2138 31.7567 17.9384 32.0322 17.7469 32.3639C17.4546 32.8702 17.4546 33.5499 17.4546 34.9093C17.4546 36.2687 17.4546 36.9484 17.7469 37.4548C17.9384 37.7864 18.2138 38.0619 18.5455 38.2533C19.0518 38.5457 19.7315 38.5457 21.091 38.5457H21.8182" stroke="#111010" stroke-width="2.18182" stroke-linejoin="round"/>
<path d="M34.1818 19.6364C34.1818 20.8414 33.2049 21.8182 31.9999 21.8182C30.795 21.8182 29.8181 20.8414 29.8181 19.6364C29.8181 18.4314 30.795 17.4546 31.9999 17.4546C33.2049 17.4546 34.1818 18.4314 34.1818 19.6364Z" stroke="#111010" stroke-width="2.18182"/>
<path d="M32 21.8184V26.182" stroke="#111010" stroke-width="2.18182" stroke-linecap="round" stroke-linejoin="round"/>
<path d="M27.6365 32V33.4545M36.3637 32V33.4545" stroke="#111010" stroke-width="2.18182" stroke-linecap="round" stroke-linejoin="round"/>
<path d="M29.0908 38.5454C29.0908 38.5454 30.0606 39.2727 31.9999 39.2727C33.9393 39.2727 34.909 38.5454 34.909 38.5454" stroke="#111010" stroke-width="2.18182" stroke-linecap="round"/>
</svg>
