<svg width="64" height="64" viewBox="0 0 64 64" fill="none" xmlns="http://www.w3.org/2000/svg">
<rect width="64" height="64" rx="32" fill="#EEF4FF"/>
<path d="M30.5454 26.1816H33.4545C37.5685 26.1816 39.6255 26.1816 40.9036 27.4597C42.1818 28.7378 42.1818 30.7949 42.1818 34.9089C42.1818 39.0229 42.1818 41.08 40.9036 42.3581C39.6255 43.6362 37.5685 43.6362 33.4545 43.6362H31.9999C31.9999 43.6362 31.2727 46.5453 26.1818 46.5453C26.1818 46.5453 27.6363 45.0781 27.6363 43.611C25.3767 43.5429 24.029 43.2909 23.0962 42.3581C21.8181 41.08 21.8181 39.0229 21.8181 34.9089C21.8181 30.7949 21.8181 28.7378 23.0962 27.4597C24.3743 26.1816 26.4313 26.1816 30.5454 26.1816Z" stroke="#111010" stroke-width="2.18182" stroke-linejoin="round"/>
<path d="M42.1819 31.2729H42.9092C44.2686 31.2729 44.9483 31.2729 45.4546 31.5653C45.7862 31.7567 46.0617 32.0322 46.2532 32.3639C46.5455 32.8702 46.5455 33.5499 46.5455 34.9093C46.5455 36.2687 46.5455 36.9484 46.2532 37.4548C46.0617 37.7864 45.7862 38.0619 45.4546 38.2533C44.9483 38.5457 44.2686 38.5457 42.9092 38.5457H42.1819" stroke="#111010" stroke-width="2.18182" stroke-linejoin="round"/>
<path d="M21.8182 31.2729H21.091C19.7315 31.2729 19.0518 31.2729 18.5455 31.5653C18.2138 31.7567 17.9384 32.0322 17.7469 32.3639C17.4546 32.8702 17.4546 33.5499 17.4546 34.9093C17.4546 36.2687 17.4546 36.9484 17.7469 37.4548C17.9384 37.7864 18.2138 38.0619 18.5455 38.2533C19.0518 38.5457 19.7315 38.5457 21.091 38.5457H21.8182" stroke="#111010" stroke-width="2.18182" stroke-linejoin="round"/>
<path d="M34.1818 19.6364C34.1818 20.8414 33.2049 21.8182 31.9999 21.8182C30.795 21.8182 29.8181 20.8414 29.8181 19.6364C29.8181 18.4314 30.795 17.4546 31.9999 17.4546C33.2049 17.4546 34.1818 18.4314 34.1818 19.6364Z" stroke="#111010" stroke-width="2.18182"/>
<path d="M32 21.8184V26.182" stroke="#111010" stroke-width="2.18182" stroke-linecap="round" stroke-linejoin="round"/>
<path d="M27.6365 32V33.4545M36.3637 32V33.4545" stroke="#111010" stroke-width="2.18182" stroke-linecap="round" stroke-linejoin="round"/>
<path d="M29.0908 38.5454C29.0908 38.5454 30.0606 39.2727 31.9999 39.2727C33.9393 39.2727 34.909 38.5454 34.909 38.5454" stroke="#111010" stroke-width="2.18182" stroke-linecap="round"/>
</svg>
