<svg width="30" height="28" viewBox="0 0 30 28" fill="none" xmlns="http://www.w3.org/2000/svg">
<g clip-path="url(#clip0_56_725)">
<path d="M6.46592 20.0759C6.47039 19.2627 7.00491 19.0366 7.53 19.6576L9.27834 21.7283L12.5416 25.5821C12.7365 25.8126 13.5051 26.6899 13.9921 27.3035C14.2483 27.6263 14.0852 27.9165 13.6732 27.912L12.5143 27.907L8.86662 27.9062C8.51954 27.9063 8.14862 27.9026 7.7769 27.9033C7.06194 27.9046 6.47715 27.3806 6.47763 26.6656L6.47916 24.5808C6.48015 23.1156 6.45768 21.5749 6.46592 20.0759Z" fill="#3DB1FE"/>
<path d="M4.07316 0.676466C4.44949 0.24485 4.99537 0 5.56801 0H18.4943C18.7271 0 18.9632 0.0234338 19.1955 0.0384911C19.2017 0.0388922 19.2074 0.039263 19.2124 0.0396044C22.4919 0.262172 25.4285 2.1698 26.9184 5.11533C27.9899 7.23368 28.2007 9.73301 27.5138 11.994C26.5982 15.0089 24.2368 17.3413 21.2361 18.2408C21.2281 18.2432 21.222 18.2497 21.2201 18.2578C21.2185 18.2648 21.2203 18.2723 21.225 18.2778L26.2438 24.2425C26.9735 25.0922 27.6959 25.9479 28.4115 26.8097C28.4935 26.9093 28.8305 27.2878 29.0413 27.5658C29.1701 27.7357 29.0893 27.8632 28.8761 27.8622C28.5417 27.8603 28.2075 27.8627 27.8731 27.863C26.3994 27.8734 24.9256 27.8687 23.452 27.8488C23.2265 27.846 22.926 27.8555 22.6311 27.8597C22.1366 27.8668 21.68 27.638 21.3555 27.2648C20.5772 26.37 19.8065 25.4349 19.0425 24.5385L12.4472 16.7765L10.2227 14.1517C10.1603 14.0781 10.0654 13.9617 9.95842 13.8304C9.6896 13.5004 9.90027 13.0073 10.3259 13.0073L11.827 13.0075L16.9375 13.0096C17.4707 13.0097 18.0327 13.0012 18.5621 12.9998C22.0877 12.9906 23.6791 8.59739 20.8579 6.39565C19.6679 5.46692 18.6444 5.62518 17.2218 5.62546L14.1224 5.62633L3.28139 5.62726L0.965623 5.62923C0.856999 5.62934 0.477285 5.63387 0.224829 5.62822C0.0917984 5.62525 0.0488596 5.54763 0.131274 5.44316C1.40355 3.82018 2.71796 2.23075 4.07316 0.676466Z" fill="#0463AA"/>
</g>
<defs>
<clipPath id="clip0_56_725">
<rect width="29.4219" height="28" fill="white"/>
</clipPath>
</defs>
</svg>
