<?xml version="1.0" encoding="UTF-8"?>
<svg id="Layer_2" data-name="Layer 2" xmlns="http://www.w3.org/2000/svg" xmlns:xlink="http://www.w3.org/1999/xlink" viewBox="0 0 287.17 92.88">
  <defs>
    
    <linearGradient id="linear-gradient" x1="41.95" y1="12.8" x2="68.3" y2="57.7" gradientUnits="userSpaceOnUse">
      <stop offset="0" stop-color="#0072bf"></stop>
      <stop offset="1" stop-color="#085698"></stop>
    </linearGradient>
  </defs>
  <g id="Layer_1" data-name="Layer 1">
    <g>
      <path class="cls-2" d="M118.45,68.39v-36.11h12.95c4.54,0,8.1,1.07,10.68,3.2,2.58,2.13,3.87,5.12,3.87,8.98,0,2.51-.58,4.67-1.75,6.47-1.17,1.81-2.84,3.2-5,4.18-2.17.98-4.76,1.47-7.79,1.47h-11.5l1.19-1.24v13.05h-2.63ZM121.08,55.49l-1.19-1.24h11.5c3.89,0,6.83-.86,8.85-2.58,2.01-1.72,3.02-4.13,3.02-7.22s-1.01-5.55-3.02-7.25-4.96-2.55-8.85-2.55h-11.5l1.19-1.29v22.13ZM143.52,68.39l-9.39-13.1h2.99l9.39,13.1h-2.99Z"></path>
      <path class="cls-2" d="M156.05,34.91c-.59,0-1.08-.21-1.5-.62-.41-.41-.62-.89-.62-1.44,0-.58.21-1.08.62-1.5.41-.41.91-.62,1.5-.62.62,0,1.13.2,1.52.59.39.4.59.89.59,1.47s-.2,1.08-.59,1.5c-.4.41-.9.62-1.52.62ZM154.76,68.39v-26.93h2.58v26.93h-2.58Z"></path>
      <path class="cls-2" d="M163.79,43.68v-2.22h16.09v2.22h-16.09ZM168.74,68.39v-31.05c0-2.23.65-4.03,1.93-5.39,1.29-1.36,3.14-2.04,5.54-2.04,1,0,1.98.15,2.94.44.96.29,1.75.73,2.37,1.32l-1.03,1.96c-.52-.52-1.13-.89-1.86-1.13-.72-.24-1.5-.36-2.32-.36-1.65,0-2.91.46-3.77,1.37-.86.91-1.29,2.26-1.29,4.05v4.54l.05,1.24v25.07h-2.58Z"></path>
      <path class="cls-2" d="M185.14,68.39V30.12h2.58v20.07l-.52,4.69.41,4.69v8.82h-2.48ZM198.66,68.6c-2.37,0-4.51-.55-6.42-1.65s-3.42-2.68-4.54-4.75c-1.12-2.06-1.68-4.49-1.68-7.27s.56-5.3,1.68-7.33c1.12-2.03,2.63-3.59,4.54-4.69,1.91-1.1,4.05-1.65,6.42-1.65,2.54,0,4.82.58,6.83,1.73,2.01,1.15,3.59,2.75,4.75,4.8,1.15,2.05,1.73,4.43,1.73,7.14s-.58,5.05-1.73,7.12c-1.15,2.06-2.73,3.67-4.75,4.82s-4.29,1.73-6.83,1.73ZM198.5,66.27c2.06,0,3.92-.47,5.57-1.42,1.65-.95,2.95-2.28,3.89-4,.95-1.72,1.42-3.7,1.42-5.93s-.47-4.26-1.42-5.96c-.95-1.7-2.24-3.03-3.89-3.97-1.65-.95-3.51-1.42-5.57-1.42s-3.91.47-5.55,1.42c-1.63.95-2.92,2.27-3.87,3.97-.95,1.7-1.42,3.69-1.42,5.96s.47,4.21,1.42,5.93c.95,1.72,2.23,3.05,3.87,4,1.63.95,3.48,1.42,5.55,1.42Z"></path>
      <path class="cls-2" d="M218.62,78.6c-1.24,0-2.4-.21-3.48-.62-1.08-.41-2-1.01-2.76-1.81l1.29-1.96c.69.72,1.44,1.25,2.24,1.6.81.34,1.73.52,2.76.52,1.24,0,2.33-.34,3.28-1.03.95-.69,1.83-1.94,2.66-3.77l1.86-4.13.36-.46,11.4-25.48h2.63l-13.82,30.59c-.72,1.65-1.5,2.95-2.35,3.89-.84.95-1.76,1.62-2.76,2.04-1,.41-2.1.62-3.3.62ZM226.41,69.06l-12.48-27.6h2.73l11.35,25.33-1.6,2.27Z"></path>
      <path class="cls-2" d="M260.96,68.6c-2,0-3.72-.32-5.18-.95-1.46-.64-2.58-1.54-3.35-2.71-.77-1.17-1.16-2.51-1.16-4.02,0-1.38.32-2.62.96-3.74.64-1.12,1.69-2.03,3.17-2.73,1.48-.7,3.46-1.06,5.93-1.06h9.9v2.01h-9.85c-2.79,0-4.74.52-5.85,1.55-1.12,1.03-1.68,2.32-1.68,3.87,0,1.72.65,3.1,1.96,4.13,1.31,1.03,3.15,1.55,5.52,1.55s4.19-.52,5.75-1.55c1.56-1.03,2.73-2.53,3.48-4.49l.72,1.75c-.72,1.96-1.95,3.52-3.69,4.67s-3.95,1.73-6.63,1.73ZM270.66,68.39v-6.14l-.1-.93v-10.11c0-2.51-.68-4.42-2.04-5.73-1.36-1.31-3.34-1.96-5.96-1.96-1.86,0-3.58.32-5.18.95-1.6.64-2.97,1.45-4.1,2.45l-1.29-1.86c1.34-1.2,2.96-2.14,4.85-2.81,1.89-.67,3.87-1.01,5.93-1.01,3.33,0,5.9.84,7.69,2.53,1.79,1.69,2.68,4.2,2.68,7.53v17.07h-2.48Z"></path>
      <path class="cls-2" d="M285.05,34.91c-.59,0-1.08-.21-1.5-.62-.41-.41-.62-.89-.62-1.44,0-.58.21-1.08.62-1.5.41-.41.91-.62,1.5-.62.62,0,1.13.2,1.52.59.39.4.59.89.59,1.47s-.2,1.08-.59,1.5c-.4.41-.9.62-1.52.62ZM283.76,68.39v-26.93h2.58v26.93h-2.58Z"></path>
    </g>
    <g>
      <path class="cls-3" d="M72.92,92.72L31.02,43.35h31.02c6.85,0,12.43-5.58,12.43-12.43s-5.58-12.43-12.43-12.43H0L15.35,0h46.69c17.05,0,30.92,13.87,30.92,30.92,0,14.14-9.54,26.09-22.52,29.76l27.08,32.16-24.61-.11Z"></path>
      <polygon class="cls-1" points="48.01 92.88 21.66 92.88 21.66 61.72 48.01 92.88"></polygon>
    </g>
  </g>
</svg>