<svg width="157" height="152" viewBox="0 0 157 152" fill="none" xmlns="http://www.w3.org/2000/svg">
<path d="M52.7916 18.6782C60.8835 -6.22612 96.1165 -6.22612 104.208 18.6782C107.827 29.8157 118.206 37.3564 129.917 37.3564C156.103 37.3564 166.99 70.865 145.805 86.2567C136.331 93.1401 132.367 105.341 135.986 116.479C144.078 141.383 115.574 162.092 94.3887 146.701C84.9145 139.817 72.0855 139.817 62.6113 146.701C41.4265 162.092 12.9224 141.383 21.0143 116.479C24.6331 105.341 20.6687 93.1401 11.1945 86.2567C-9.99032 70.865 0.897276 37.3564 27.0832 37.3564C38.7939 37.3564 49.1728 29.8157 52.7916 18.6782Z" fill="#0063FF"/>
</svg>
