<svg width="138" height="144" viewBox="0 0 138 144" fill="none" xmlns="http://www.w3.org/2000/svg">
<path d="M58.4198 8.79915C60.5947 -2.93303 77.4053 -2.93303 79.5802 8.79915C81.1359 17.1916 91.3756 20.5186 97.5671 14.6435C106.223 6.43027 119.823 16.3113 114.686 27.0812C111.012 34.7852 117.34 43.4956 125.803 42.3818C137.633 40.8248 142.828 56.8127 132.342 62.5065C124.841 66.5795 124.841 77.3461 132.342 81.4191C142.828 87.1129 137.633 103.101 125.803 101.544C117.34 100.43 111.012 109.14 114.686 116.844C119.823 127.614 106.223 137.495 97.5671 129.282C91.3756 123.407 81.1359 126.734 79.5802 135.126C77.4053 146.859 60.5947 146.859 58.4198 135.126C56.8641 126.734 46.6244 123.407 40.4329 129.282C31.7774 137.495 18.1773 127.614 23.3138 116.844C26.9881 109.14 20.6597 100.43 12.1973 101.544C0.367229 103.101 -4.82755 87.1129 5.65834 81.4191C13.1592 77.3461 13.1592 66.5795 5.65835 62.5065C-4.82755 56.8127 0.367229 40.8248 12.1973 42.3818C20.6597 43.4956 26.9881 34.7853 23.3138 27.0812C18.1773 16.3113 31.7774 6.43027 40.4329 14.6435C46.6244 20.5186 56.8641 17.1916 58.4198 8.79915Z" fill="#0063FF"/>
</svg>
