<svg width="162" height="169" viewBox="0 0 162 169" fill="none" xmlns="http://www.w3.org/2000/svg">
<path d="M68.5798 10.3294C71.1329 -3.44313 90.8671 -3.44313 93.4202 10.3294C95.2465 20.1814 107.267 24.087 114.535 17.1901C124.696 7.54856 140.661 19.1481 134.632 31.791C130.318 40.8348 137.747 51.06 147.681 49.7525C161.569 47.9247 167.667 66.6931 155.358 73.3772C146.552 78.1585 146.552 90.7975 155.358 95.5789C167.667 102.263 161.569 121.031 147.681 119.204C137.747 117.896 130.318 128.121 134.632 137.165C140.661 149.808 124.696 161.408 114.535 151.766C107.267 144.869 95.2465 148.775 93.4202 158.627C90.8671 172.399 71.1329 172.399 68.5798 158.627C66.7535 148.775 54.7331 144.869 47.4647 151.766C37.3039 161.408 21.3386 149.808 27.3684 137.165C31.6817 128.121 24.2527 117.896 14.3185 119.204C0.431104 121.031 -5.66711 102.263 6.64242 95.5789C15.4478 90.7975 15.4478 78.1585 6.64242 73.3772C-5.66711 66.6931 0.431111 47.9247 14.3185 49.7525C24.2527 51.06 31.6817 40.8348 27.3684 31.791C21.3386 19.1481 37.3039 7.54856 47.4647 17.1901C54.7331 24.087 66.7535 20.1814 68.5798 10.3294Z" fill="#FF9C00"/>
</svg>
