<svg width="185" height="178" viewBox="0 0 185 178" fill="none" xmlns="http://www.w3.org/2000/svg">
<path d="M92.4886 17.014C93.4848 17.014 94.3166 17.3068 94.8793 17.6903C95.3337 18.0001 95.8943 18.5431 96.2965 19.781L103.721 42.6315C108.812 58.3017 123.416 68.9116 139.892 68.9116H163.919C165.221 68.9117 165.91 69.277 166.345 69.6134C166.884 70.03 167.419 70.7305 167.726 71.6777C168.034 72.6251 168.013 73.5066 167.822 74.1602C167.668 74.6881 167.325 75.389 166.272 76.1541L146.834 90.2765C133.504 99.9611 127.926 117.128 133.017 132.798L140.442 155.649C140.845 156.888 140.71 157.656 140.525 158.174C140.295 158.815 139.794 159.541 138.988 160.126C138.182 160.711 137.338 160.964 136.657 160.984C136.107 161.001 135.335 160.891 134.282 160.126L114.844 146.003C101.514 136.318 83.4636 136.318 70.1337 146.003L50.6953 160.125C49.6421 160.89 48.8699 161.001 48.3202 160.984C47.6395 160.964 46.7951 160.71 45.9891 160.125C45.1835 159.54 44.6825 158.815 44.4527 158.174C44.2671 157.656 44.1325 156.888 44.5348 155.649L51.96 132.798L51.959 132.797C57.0501 117.127 51.4732 99.961 38.1436 90.2765L18.7052 76.1541C17.6521 75.389 17.3092 74.6881 17.155 74.1602C16.9642 73.5066 16.943 72.6251 17.2508 71.6777C17.5586 70.7305 18.0934 70.03 18.6319 69.6134C19.0668 69.277 19.7562 68.9117 21.0578 68.9116H45.085C61.5616 68.9116 76.1649 58.3017 81.2564 42.6315L88.6807 19.781C89.0829 18.5431 89.6435 18.0001 90.0979 17.6903C90.6606 17.3068 91.4924 17.014 92.4886 17.014Z" stroke="#E96800" stroke-width="34"/>
</svg>
