<svg width="48" height="48" viewBox="0 0 48 48" fill="none" xmlns="http://www.w3.org/2000/svg">
<path d="M37.658 37.6566C35.315 39.9998 31.5436 39.9998 24.0012 39.9998C16.4587 39.9998 12.6875 39.9998 10.3443 37.6566C8.00121 35.3136 8.00121 31.5422 8.00121 23.9998C8.00121 16.4573 8.00121 12.6861 10.3443 10.3429C12.6875 7.99976 16.4587 7.99976 24.0012 7.99976C31.5436 7.99976 35.315 7.99976 37.658 10.3429C40.0012 12.6861 40.0012 16.4573 40.0012 23.9998C40.0012 31.5422 40.0012 35.3136 37.658 37.6566Z" stroke="#171719" stroke-width="3" stroke-linecap="round" stroke-linejoin="round"/>
<path d="M15.9988 4.00024V8.00024M31.9988 4.00024V8.00024M23.9988 4.00024V8.00024M15.9988 40.0002V44.0002M23.9988 40.0002V44.0002M31.9988 40.0002V44.0002M43.9988 32.0002H39.9988M7.9988 16.0002H3.99879M7.9988 32.0002H3.99879M7.9988 24.0002H3.99879M43.9988 16.0002H39.9988M43.9988 24.0002H39.9988" stroke="#171719" stroke-width="3" stroke-linecap="round" stroke-linejoin="round"/>
<path d="M22.9604 15.7239C23.3174 14.7587 24.6826 14.7587 25.0396 15.7239L26.6404 20.0496C26.865 20.6566 27.3434 21.135 27.9504 21.3596L32.2762 22.9604C33.2412 23.3174 33.2412 24.6826 32.2762 25.0396L27.9504 26.6404C27.3434 26.865 26.865 27.3434 26.6404 27.9504L25.0396 32.2762C24.6826 33.2412 23.3174 33.2412 22.9604 32.2762L21.3596 27.9504C21.135 27.3434 20.6566 26.865 20.0496 26.6404L15.7239 25.0396C14.7587 24.6826 14.7587 23.3174 15.7239 22.9604L20.0496 21.3596C20.6566 21.135 21.135 20.6566 21.3596 20.0496L22.9604 15.7239Z" stroke="#171719" stroke-width="3"/>
</svg>
