<svg width="48" height="48" viewBox="0 0 48 48" fill="none" xmlns="http://www.w3.org/2000/svg">
<path d="M37.4176 6.99068C33.633 5.10764 29.0018 4 24 4C18.9982 4 14.367 5.10764 10.5823 6.99068C8.72636 7.91412 7.79838 8.37584 6.8992 9.82756C6 11.2793 6 12.685 6 15.4963V22.4742C6 33.841 15.0847 40.1608 20.346 42.8676C21.8134 43.6226 22.547 44 24 44C25.453 44 26.1866 43.6226 27.6538 42.8676C32.9152 40.1608 42 33.841 42 22.4742V15.4963C42 12.685 42 11.2793 41.1008 9.82756C40.2016 8.37582 39.2736 7.91412 37.4176 6.99068Z" stroke="#171719" stroke-width="3.25" stroke-linecap="round" stroke-linejoin="round"/>
<path d="M18 25L23 30L32 18" stroke="black" stroke-width="3.25" stroke-linecap="round"/>
</svg>
