<svg width="48" height="48" viewBox="0 0 48 48" fill="none" xmlns="http://www.w3.org/2000/svg">
<path d="M20.0012 20.0002C20.0012 22.2094 21.792 24.0002 24.0012 24.0002C26.2104 24.0002 28.0012 22.2094 28.0012 20.0002C28.0012 17.7911 26.2104 16.0002 24.0012 16.0002C21.792 16.0002 20.0012 17.7911 20.0012 20.0002Z" stroke="#171719" stroke-width="3.25"/>
<path d="M36.492 30.0002C38.6878 27.261 40.0012 23.784 40.0012 20.0002C40.0012 11.1637 32.8378 4.00024 24.0012 4.00024C15.1647 4.00024 8.00122 11.1637 8.00122 20.0002C8.00122 23.784 9.31466 27.261 11.5105 30.0002" stroke="#171719" stroke-width="3.25" stroke-linecap="round"/>
<path d="M6 37C6 34.191 6 32.7866 6.6067 31.7778C6.86936 31.341 7.20686 30.966 7.59994 30.6742C8.50796 30 9.77196 30 12.3 30H35.7C38.228 30 39.492 30 40.4 30.6742C40.7932 30.966 41.1306 31.341 41.3932 31.7778C42 32.7866 42 34.191 42 37C42 39.809 42 41.2134 41.3932 42.2222C41.1306 42.659 40.7932 43.034 40.4 43.3258C39.492 44 38.228 44 35.7 44H12.3C9.77196 44 8.50796 44 7.59994 43.3258C7.20686 43.034 6.86936 42.659 6.6067 42.2222C6 41.2134 6 39.809 6 37Z" stroke="#171719" stroke-width="3.25"/>
<path d="M21.9988 36H25.9988" stroke="#171719" stroke-width="3.25" stroke-linecap="round" stroke-linejoin="round"/>
<path d="M31.7812 13.2211L35.8041 9.19824" stroke="#171719" stroke-width="3.25" stroke-linecap="round" stroke-linejoin="round"/>
</svg>
